<svg width="262" height="302" viewBox="0 0 262 302" fill="none" xmlns="http://www.w3.org/2000/svg">
<path d="M131 1L261 76V151V226L222 203.5L131 151V211L92 188.5V128.5L131 106L222 158.5V98.5L131 46L40 98.5V203.5L131 256L183 226L222 248.5L131 301L1 226V151V76L131 1Z" fill="black"/>
<path d="M261 76L131 1L1 76M261 76V151V226L222 203.5L131 151V211L92 188.5V128.5L131 106L222 158.5V98.5M261 76L222 98.5M131 301L1 226V151V76M131 301L222 248.5L183 226L131 256M131 301V256M1 76L40 98.5M131 256L40 203.5V98.5M40 98.5L131 46L222 98.5" stroke="white"/>
</svg>
